<svg width="64" height="64" viewBox="0 0 64 64" fill="none" xmlns="http://www.w3.org/2000/svg">
  <defs>
    <linearGradient id="g" x1="12" y1="10" x2="54" y2="56" gradientUnits="userSpaceOnUse">
      <stop stop-color="#60A5FA"/>
      <stop offset="0.55" stop-color="#6366F1"/>
      <stop offset="1" stop-color="#A855F7"/>
    </linearGradient>
    <linearGradient id="shine" x1="0" y1="0" x2="64" y2="64" gradientUnits="userSpaceOnUse">
      <stop stop-color="white" stop-opacity="0.0"/>
      <stop offset="0.45" stop-color="white" stop-opacity="0.0"/>
      <stop offset="0.55" stop-color="white" stop-opacity="0.25"/>
      <stop offset="0.65" stop-color="white" stop-opacity="0.0"/>
      <stop offset="1" stop-color="white" stop-opacity="0.0"/>
    </linearGradient>
  </defs>

  <!-- Coin -->
  <circle cx="32" cy="32" r="22" fill="url(#g)"/>
  <circle cx="32" cy="32" r="18" fill="rgba(15,23,42,0.12)"/>
  <circle cx="32" cy="32" r="16" fill="rgba(255,255,255,0.06)"/>

  <!-- QM monogram -->
  <path d="M23.2 38.8V25.8c0-2.4 1.5-4 3.9-4 1.8 0 3 .8 3.7 2.2.7-1.4 1.9-2.2 3.7-2.2 2.4 0 3.9 1.6 3.9 4v13h-3.6V26.9c0-1-.5-1.6-1.4-1.6-.9 0-1.4.6-1.4 1.6v11.9h-2.4V26.9c0-1-.5-1.6-1.4-1.6-.9 0-1.4.6-1.4 1.6v11.9h-3.3Z" fill="white" fill-opacity="0.92"/>
  <path d="M40.9 42.2c-1.3 0-2.3-1-2.3-2.3s1-2.3 2.3-2.3 2.3 1 2.3 2.3-1 2.3-2.3 2.3Z" fill="white" fill-opacity="0.92"/>

  <!-- Shine -->
  <path d="M12 24c7.5-9 20.5-13 32-10.5 3.8.8 7.2 2.3 10 4.2-2.3-2.8-5.2-5.2-8.6-6.9C31.8 4.6 15.2 10.1 8.9 23.2c-1.7 3.4-2.6 7-2.7 10.6.7-3.5 2.3-6.7 5.8-9.8Z" fill="url(#shine)"/>
</svg>

