<svg width="960" height="600" viewBox="0 0 960 600" fill="none" xmlns="http://www.w3.org/2000/svg">
  <rect width="960" height="600" rx="32" fill="#F8FAFC"/>
  <rect x="40" y="40" width="880" height="520" rx="28" fill="white" stroke="#E2E8F0" stroke-width="2"/>
  <rect x="72" y="72" width="192" height="28" rx="10" fill="#0F172A"/>
  <rect x="84" y="144" width="560" height="376" rx="24" fill="#F8FAFC" stroke="#CBD5E1" stroke-width="2"/>
  <rect x="118" y="180" width="182" height="22" rx="11" fill="#DBEAFE"/>
  <rect x="118" y="224" width="480" height="240" rx="20" fill="#EFF6FF" stroke="#BFDBFE" stroke-width="2"/>
  <circle cx="210" cy="344" r="34" fill="#93C5FD"/>
  <circle cx="360" cy="344" r="34" fill="#60A5FA"/>
  <circle cx="510" cy="344" r="34" fill="#2563EB"/>
  <path d="M244 344H326" stroke="#93C5FD" stroke-width="12" stroke-linecap="round"/>
  <path d="M394 344H476" stroke="#3B82F6" stroke-width="12" stroke-linecap="round"/>
  <rect x="680" y="144" width="200" height="376" rx="24" fill="#0F172A"/>
  <rect x="708" y="176" width="90" height="14" rx="7" fill="#F8FAFC"/>
  <rect x="708" y="214" width="144" height="86" rx="18" fill="#1E293B"/>
  <circle cx="738" cy="256" r="12" fill="#22C55E"/>
  <rect x="762" y="246" width="64" height="10" rx="5" fill="#E2E8F0"/>
  <rect x="762" y="266" width="92" height="10" rx="5" fill="#64748B"/>
  <rect x="708" y="318" width="144" height="86" rx="18" fill="#1E40AF"/>
  <circle cx="738" cy="360" r="12" fill="#BFDBFE"/>
  <rect x="762" y="350" width="58" height="10" rx="5" fill="#EFF6FF"/>
  <rect x="762" y="370" width="82" height="10" rx="5" fill="#BFDBFE"/>
  <rect x="708" y="422" width="144" height="70" rx="18" fill="#1E293B"/>
  <circle cx="738" cy="457" r="12" fill="#64748B"/>
  <rect x="762" y="447" width="54" height="10" rx="5" fill="#E2E8F0"/>
  <path d="M738 300V318" stroke="#60A5FA" stroke-width="6" stroke-linecap="round"/>
  <path d="M738 404V422" stroke="#475569" stroke-width="6" stroke-linecap="round"/>
</svg>
