<svg width="960" height="600" viewBox="0 0 960 600" fill="none" xmlns="http://www.w3.org/2000/svg">
  <rect width="960" height="600" rx="32" fill="#F8FAFC"/>
  <rect x="40" y="40" width="880" height="520" rx="28" fill="white" stroke="#E2E8F0" stroke-width="2"/>
  <rect x="72" y="72" width="180" height="28" rx="10" fill="#0F172A"/>
  <rect x="640" y="68" width="90" height="40" rx="20" fill="white" stroke="#CBD5E1" stroke-width="2"/>
  <rect x="740" y="68" width="90" height="40" rx="20" fill="white" stroke="#CBD5E1" stroke-width="2"/>
  <rect x="840" y="68" width="90" height="40" rx="20" fill="#2563EB"/>
  <rect x="96" y="154" width="488" height="300" rx="26" fill="#EFF6FF" stroke="#BFDBFE" stroke-width="2"/>
  <rect x="126" y="188" width="120" height="18" rx="9" fill="#93C5FD"/>
  <rect x="126" y="226" width="180" height="18" rx="9" fill="#DBEAFE"/>
  <circle cx="170" cy="298" r="40" fill="#2563EB"/>
  <circle cx="336" cy="298" r="34" fill="#60A5FA"/>
  <circle cx="484" cy="298" r="28" fill="#93C5FD"/>
  <path d="M210 298H302" stroke="#3B82F6" stroke-width="12" stroke-linecap="round"/>
  <path d="M370 298H448" stroke="#93C5FD" stroke-width="10" stroke-linecap="round"/>
  <rect x="650" y="156" width="230" height="88" rx="20" fill="#EFF6FF" stroke="#BFDBFE" stroke-width="2"/>
  <rect x="650" y="262" width="230" height="88" rx="20" fill="#F8FAFC" stroke="#CBD5E1" stroke-width="2"/>
  <rect x="650" y="368" width="230" height="88" rx="20" fill="#F8FAFC" stroke="#CBD5E1" stroke-width="2"/>
  <rect x="676" y="184" width="100" height="14" rx="7" fill="#2563EB"/>
  <rect x="676" y="210" width="176" height="12" rx="6" fill="#BFDBFE"/>
  <rect x="676" y="290" width="110" height="14" rx="7" fill="#64748B"/>
  <rect x="676" y="316" width="164" height="12" rx="6" fill="#E2E8F0"/>
  <rect x="676" y="396" width="92" height="14" rx="7" fill="#64748B"/>
  <rect x="676" y="422" width="150" height="12" rx="6" fill="#E2E8F0"/>
  <rect x="86" y="488" width="180" height="36" rx="18" fill="#DBEAFE"/>
  <rect x="278" y="488" width="220" height="36" rx="18" fill="#EFF6FF"/>
  <rect x="510" y="488" width="156" height="36" rx="18" fill="#EFF6FF"/>
</svg>
