<svg width="960" height="600" viewBox="0 0 960 600" fill="none" xmlns="http://www.w3.org/2000/svg">
  <rect width="960" height="600" rx="32" fill="#F8FAFC"/>
  <rect x="40" y="40" width="880" height="520" rx="28" fill="white" stroke="#E2E8F0" stroke-width="2"/>
  <rect x="72" y="72" width="186" height="30" rx="10" fill="#0F172A"/>
  <rect x="72" y="120" width="176" height="36" rx="18" fill="#F8FAFC" stroke="#CBD5E1" stroke-width="2"/>
  <path d="M228 138H238" stroke="#64748B" stroke-width="2.5" stroke-linecap="round"/>
  <path d="M233 133L238 138L233 143" stroke="#64748B" stroke-width="2.5" stroke-linecap="round" stroke-linejoin="round"/>
  <rect x="628" y="72" width="112" height="40" rx="20" fill="white" stroke="#CBD5E1" stroke-width="2"/>
  <rect x="752" y="72" width="112" height="40" rx="20" fill="white" stroke="#CBD5E1" stroke-width="2"/>
  <rect x="778" y="88" width="44" height="8" rx="4" fill="#475569"/>
  <rect x="634" y="88" width="50" height="8" rx="4" fill="#475569"/>
  <rect x="628" y="128" width="236" height="168" rx="20" fill="#F8FAFC" stroke="#CBD5E1" stroke-width="2"/>
  <rect x="652" y="152" width="88" height="12" rx="6" fill="#64748B"/>
  <rect x="652" y="180" width="188" height="52" rx="14" fill="#EFF6FF" stroke="#BFDBFE" stroke-width="2"/>
  <rect x="674" y="198" width="72" height="10" rx="5" fill="#2563EB"/>
  <rect x="674" y="216" width="130" height="8" rx="4" fill="#93C5FD"/>
  <rect x="72" y="192" width="520" height="296" rx="24" fill="#F8FAFC" stroke="#CBD5E1" stroke-width="2"/>
  <rect x="100" y="222" width="122" height="18" rx="9" fill="#DBEAFE"/>
  <rect x="100" y="260" width="430" height="192" rx="18" fill="#EFF6FF" stroke="#BFDBFE" stroke-width="2"/>
  <circle cx="172" cy="356" r="40" fill="#93C5FD"/>
  <circle cx="328" cy="356" r="40" fill="#60A5FA"/>
  <circle cx="484" cy="356" r="40" fill="#2563EB"/>
  <path d="M212 356H288" stroke="#93C5FD" stroke-width="12" stroke-linecap="round"/>
  <path d="M368 356H444" stroke="#3B82F6" stroke-width="12" stroke-linecap="round"/>
  <rect x="100" y="506" width="248" height="12" rx="6" fill="#E2E8F0"/>
</svg>
